<?xml version="1.0" encoding="UTF-8" standalone="no"?>
<!-- Created with Inkscape (http://www.inkscape.org/) -->

<svg
   width="117.63523mm"
   height="114.4799mm"
   viewBox="0 0 117.63523 114.4799"
   version="1.1"
   id="svg1"
   xml:space="preserve"
   xmlns:inkscape="http://www.inkscape.org/namespaces/inkscape"
   xmlns:sodipodi="http://sodipodi.sourceforge.net/DTD/sodipodi-0.dtd"
   xmlns="http://www.w3.org/2000/svg"
   xmlns:svg="http://www.w3.org/2000/svg"><sodipodi:namedview
     id="namedview1"
     pagecolor="#ffffff"
     bordercolor="#999999"
     borderopacity="1"
     inkscape:showpageshadow="2"
     inkscape:pageopacity="0"
     inkscape:pagecheckerboard="0"
     inkscape:deskcolor="#d1d1d1"
     inkscape:document-units="mm" /><defs
     id="defs1" /><g
     inkscape:label="Calque 1"
     inkscape:groupmode="layer"
     id="layer1"
     transform="translate(-46.182382,-110.42148)"><path
       style="fill:#000000"
       d="m 116.31521,224.74794 c -0.28591,-0.0534 -0.51984,-0.24295 -0.51984,-0.42122 0,-0.47161 1.92405,-4.38924 3.15821,-6.43056 0.79184,-1.3097 1.46127,-2.06918 2.6331,-2.98727 1.75402,-1.37422 2.18943,-1.97898 4.65786,-6.46949 2.38185,-4.333 2.60463,-4.96537 2.60463,-7.39319 0,-1.75314 -0.0841,-2.18246 -0.64462,-3.2892 -0.66589,-1.31488 -1.98605,-2.64775 -2.62249,-2.64775 -0.19967,0 -0.56251,0.24591 -0.80632,0.54646 -0.2438,0.30055 -1.4843,1.13228 -2.75666,1.84829 -4.59708,2.58698 -5.68002,3.37101 -7.61302,5.51168 -1.02467,1.13474 -2.33403,2.53597 -2.90969,3.11382 l -1.04667,1.05065 0.39286,1.35768 c 0.48481,1.67547 0.36382,2.66396 -0.55442,4.52963 -0.60477,1.22876 -2.75799,3.97411 -3.27356,4.17377 -0.0915,0.0354 -0.70048,-1.08145 -1.35329,-2.48196 -1.30209,-2.79347 -1.40987,-3.51424 -0.85026,-5.68568 0.18516,-0.71847 0.43386,-2.21365 0.55268,-3.32263 l 0.21604,-2.01632 2.73964,-2.45554 c 4.13488,-3.70608 7.22165,-6.81554 7.73564,-7.79249 0.8204,-1.55937 0.66868,-2.67789 -0.7701,-5.67727 -1.42851,-2.97795 -1.51167,-3.24304 -1.80819,-5.76414 -0.28585,-2.43031 -0.53312,-2.74263 -2.32712,-2.93945 -1.97708,-0.2169 -8.75562,-1.55777 -11.860471,-2.34614 -2.73884,-0.69543 -10.105723,-3.46643 -14.616431,-5.49787 -1.519873,-0.68449 -2.89216,-1.24452 -3.049527,-1.24452 -0.157368,0 -0.720509,0.24362 -1.251427,0.54138 -1.229441,0.68951 -6.015239,1.22289 -12.903189,1.43804 -4.589033,0.14335 -4.798187,0.16973 -5.35312,0.67526 -1.274399,1.16094 -1.249782,1.49853 0.31453,4.31337 1.671653,3.00799 2.209033,3.56164 3.456974,3.56164 0.799498,0 1.614514,0.42954 1.624442,0.85614 0.0019,0.0836 0.101379,0.30208 0.220963,0.48549 0.180407,0.27668 0.355558,0.20364 1.028732,-0.42905 0.670503,-0.63017 1.027347,-0.77988 2.056127,-0.86261 1.13607,-0.0914 1.299,-0.0441 1.864984,0.54106 1.148699,1.1876 2.057326,3.3047 2.081587,4.8501 l 0.02185,1.39197 -1.450411,0.0669 c -2.632709,0.12136 -8.370454,-1.1168 -10.172818,-2.19522 -0.72497,-0.43377 -1.645179,-1.92995 -1.656538,-2.69338 -0.0059,-0.396 -1.322347,-2.01136 -1.63918,-2.01136 -0.117821,0 -0.21422,0.38497 -0.21422,0.85548 0,0.47051 -0.16142,1.38256 -0.358711,2.02677 -0.197291,0.64421 -0.299639,1.35177 -0.22744,1.57235 0.0722,0.22058 0.9486,1.16722 1.947558,2.10364 1.607845,1.50719 1.834541,1.82061 1.975335,2.73103 0.190064,1.22901 -0.173257,3.10719 -0.791879,4.09359 -0.626135,0.99838 -2.235183,2.00562 -2.738163,1.71405 -0.211366,-0.12253 -1.120622,-1.2814 -2.020568,-2.57527 -1.224911,-1.76109 -1.756987,-2.77184 -2.116461,-4.02052 -0.264107,-0.91741 -0.821847,-2.39985 -1.239422,-3.2943 l -0.759227,-1.62628 1.086839,-4.4227 c 0.597761,-2.43248 1.086066,-4.85419 1.085122,-5.38159 -9.44e-4,-0.5274 -0.261637,-1.55773 -0.579318,-2.28962 -0.752219,-1.73301 -0.772971,-3.38685 -0.05658,-4.50906 0.723689,-1.13364 7.314869,-6.31836 10.844912,-8.53076 l 1.351995,-0.84734 -0.06311,-3.53011 c -0.06985,-3.90725 -0.01719,-4.13786 1.473818,-6.45432 1.948327,-3.02697 2.467114,-4.84913 2.560326,-8.99278 0.0649,-2.88496 -0.512549,-4.99772 -1.365953,-4.99772 -0.388859,0 -0.677155,0.21424 -0.951478,0.70707 -0.216466,0.38889 -0.856206,1.37185 -1.421645,2.18436 -0.845929,1.21555 -1.055677,1.72663 -1.183901,2.88473 -0.182844,1.65142 -0.592083,2.19036 -1.925692,2.53602 -0.519878,0.13475 -1.065576,0.34056 -1.212663,0.45736 -0.147086,0.11681 -1.030817,0.18256 -1.963846,0.14613 -1.513967,-0.0591 -1.696465,-0.11399 -1.696873,-0.51019 -2.98e-4,-0.29027 -0.340192,-0.62567 -0.981923,-0.96894 -0.992266,-0.53077 -1.28716,-1.22556 -0.743799,-1.75245 0.162862,-0.15792 0.09014,-0.41232 -0.231041,-0.80826 -0.579937,-0.71492 -0.580295,-0.90482 -0.0058,-3.08661 1.234877,-4.6899 1.576622,-7.7827 1.152256,-10.42794 -0.296566,-1.84861 -0.289995,-1.9154 0.460014,-4.67594 0.904301,-3.32843 0.874752,-3.42518 -1.42764,-4.67451 -1.370144,-0.74347 -11.345138,-5.00825 -11.345138,-5.59063 0,-0.1665 9.035266,2.973 9.369134,3.0749 3.435644,1.04866 5.048092,1.07029 7.194083,0.0965 0.840237,-0.38127 1.527704,-0.76851 1.527704,-0.86054 0,-0.092 -0.154827,-0.66221 -0.34406,-1.26709 -0.413301,-1.3211 -0.404667,-1.21179 -0.09571,-1.21179 0.139341,0 0.725804,0.40326 1.303252,0.89614 0.577447,0.49288 1.194499,0.89615 1.371225,0.89615 0.176727,0 0.956154,-0.20738 1.732061,-0.46084 1.701111,-0.55569 7.792338,-1.03149 8.500482,-0.66399 0.242361,0.12578 0.854881,0.22868 1.361156,0.22868 1.531144,0 7.513195,1.71709 9.711078,2.78746 1.105324,0.5383 2.462881,1.09706 3.016794,1.24169 0.553912,0.14463 1.154845,0.40622 1.335406,0.58131 0.180561,0.17508 0.482955,0.31834 0.671987,0.31834 0.199985,0 0.2751,0.10762 0.179646,0.25738 -0.12013,0.18848 0.17002,0.21646 1.083808,0.1045 l 1.247852,-0.15288 -0.924159,0.56061 c -0.50829,0.30834 -0.820195,0.57085 -0.693123,0.58336 0.127073,0.0125 0.03652,0.0969 -0.201235,0.18746 -0.337694,0.12868 -0.02174,0.34669 1.444004,0.99638 1.031953,0.45742 1.876283,0.90777 1.876283,1.00079 0,0.093 0.35926,0.35672 0.79836,0.58603 0.4391,0.2293 0.77699,0.52849 0.75088,0.66486 -0.0261,0.13638 1.47355,0.75302 3.332591,1.37032 1.85904,0.61729 3.62752,1.25245 3.92995,1.41145 0.45613,0.23981 0.71689,0.23196 1.52954,-0.0461 1.18177,-0.40431 1.30377,-0.26833 0.17103,0.19061 -0.84922,0.34407 -0.93291,0.48534 -0.59456,1.00367 0.13577,0.20799 0.56688,0.30392 1.25273,0.27876 1.20346,-0.0441 1.52545,0.25353 0.94594,0.87447 -0.3929,0.42099 -0.3815,0.4346 0.38168,0.45562 0.65945,0.0182 0.55175,0.0816 -0.66587,0.39207 -0.79891,0.20371 -1.52668,0.47856 -1.61728,0.61077 -0.0906,0.13221 -0.37266,0.32037 -0.62681,0.41815 -0.3604,0.13865 -0.38582,0.20058 -0.11552,0.28145 0.96314,0.28815 1.0176,0.36706 0.34656,0.50216 -0.64885,0.13063 -0.59241,0.17433 0.88347,0.68418 1.176,0.40626 1.46952,0.58466 1.15521,0.70215 -0.23177,0.0866 -0.83726,0.10772 -1.34555,0.0469 l -0.92417,-0.11064 0.69313,0.44152 c 0.38121,0.24284 1.21296,0.75305 1.84832,1.1338 0.63536,0.38075 1.01911,0.69419 0.85277,0.69653 -0.64539,0.009 0.0244,0.45378 0.72039,0.47831 0.40549,0.0143 0.5553,0.0721 0.33293,0.12845 -1.09143,0.27657 0.14323,0.94746 1.79056,0.97295 l 1.38625,0.0215 -0.75819,0.36573 c -0.417,0.20115 -0.71006,0.48735 -0.65123,0.636 0.0588,0.14866 -0.0303,0.45228 -0.19803,0.67473 -0.16775,0.22245 -0.25821,0.52269 -0.20102,0.66719 0.0572,0.1445 -0.2174,0.37136 -0.61019,0.50414 -0.39279,0.13277 -0.85989,0.38272 -1.03801,0.55544 -0.27778,0.26935 -0.20654,0.37427 0.50067,0.73744 1.04069,0.53442 0.99042,0.88696 -0.11679,0.81906 -0.58592,-0.0359 -0.75054,0.0116 -0.5232,0.15095 0.26824,0.16447 0.27634,0.26807 0.0423,0.54152 -0.24075,0.28129 -0.1897,0.39716 0.30366,0.68918 0.32618,0.19308 0.85298,0.50459 1.17066,0.69227 0.62436,0.36884 0.79805,0.84692 0.23104,0.63594 -0.67197,-0.25004 -0.33501,0.12455 0.63536,0.70631 0.91186,0.54669 0.82708,0.57385 -0.51984,0.16657 -0.19061,-0.0576 0.1984,0.2763 0.86445,0.74208 0.66606,0.46579 1.18255,0.87449 1.14775,0.90823 -0.0348,0.0337 -0.51707,-0.0503 -1.07173,-0.18687 -0.86466,-0.21282 -1.04843,-0.19522 -1.28874,0.12346 -0.15415,0.20442 -0.40989,0.37167 -0.56832,0.37167 -0.16217,0 -0.22945,0.14807 -0.15396,0.33882 0.10583,0.26745 0.002,0.31242 -0.49513,0.21346 -0.52837,-0.10528 -0.48686,-0.0493 0.259,0.34948 1.08895,0.58218 0.99108,0.79658 -0.15219,0.33338 -1.04276,-0.42249 -1.1652,-0.42285 -0.99903,-0.003 0.16803,0.4246 0.16771,0.42456 -1.12323,-0.11202 -1.31155,-0.54515 -1.41474,-0.55231 -1.01021,-0.0701 0.28213,0.33632 0.26614,0.35822 -0.14499,0.19862 -0.25415,-0.0987 -0.65583,-0.23311 -0.89263,-0.29877 -0.7436,-0.20618 -0.0538,0.71477 1.43549,1.91663 1.17858,0.95109 1.90132,1.2741 6.05096,2.70434 4.26925,1.47147 4.96311,1.64583 7.37681,1.85374 4.05214,0.34904 5.27547,0.80271 9.59552,3.55849 1.93731,1.23582 3.25544,2.32825 5.54498,4.59555 1.65194,1.63589 3.50874,3.33915 4.12623,3.78503 1.09253,0.78891 7.00572,6.09798 8.21086,7.37201 0.68141,0.72036 4.89888,8.44391 4.74374,8.68732 -0.0942,0.14782 0.96681,3.28084 1.62264,4.7914 0.16049,0.36965 0.40282,1.24154 0.53851,1.93752 0.13568,0.69598 0.57207,2.057 0.96973,3.02448 0.79217,1.92726 4.26028,7.13444 5.33665,8.01269 0.94695,0.77265 0.39565,0.98741 -0.67971,0.26478 -1.01739,-0.68367 -1.2236,-0.7216 -1.02949,-0.18938 0.0877,0.2406 -0.16638,0.10925 -0.6578,-0.33999 -0.44044,-0.40263 -0.86363,-0.67113 -0.94042,-0.59666 -0.0768,0.0745 -0.31798,-0.12854 -0.53595,-0.45113 -0.21798,-0.32258 -0.4451,-0.53922 -0.50471,-0.48141 -0.0596,0.0578 0.4375,0.99351 1.10471,2.07933 2.27915,3.70912 2.2051,3.57362 1.76573,3.23081 -0.28009,-0.21854 -0.14692,0.24999 0.44578,1.56826 1.99996,4.44832 2.23265,5.0516 2.29515,5.9505 0.0362,0.52081 0.13305,1.17901 0.21521,1.46265 0.14772,0.50996 0.14412,0.50947 -0.32204,-0.0444 -0.5033,-0.59795 -0.63505,-0.47243 -0.24531,0.23373 0.19073,0.34558 0.16842,0.40301 -0.11552,0.29735 -0.24657,-0.0917 -0.35191,0.0104 -0.35191,0.3411 0,0.62874 -0.21506,0.59686 -1.34958,-0.20007 -0.52626,-0.36966 -1.10172,-0.67211 -1.27882,-0.67211 -0.17709,0 -0.4982,-0.26078 -0.71358,-0.57952 -0.21538,-0.31875 -0.45009,-0.52281 -0.52158,-0.45349 -0.0715,0.0693 0.0148,0.30331 0.19174,0.51997 0.17695,0.21666 -0.27864,-0.0977 -1.01243,-0.69861 -0.73379,-0.60089 -2.02086,-2.01072 -2.86017,-3.13295 -1.6752,-2.23991 -4.16892,-4.84087 -4.64126,-4.84087 -0.16523,0 -0.72308,-0.27122 -1.23966,-0.60271 -0.7128,-0.45741 -1.02971,-0.54736 -1.31458,-0.37312 -0.30561,0.18693 -0.59091,-0.0237 -1.53525,-1.13357 -0.63794,-0.74974 -1.22582,-1.41357 -1.30639,-1.47518 -0.35526,-0.27164 -1.17008,-2.13412 -1.68364,-3.84841 -0.3072,-1.02548 -0.67025,-2.11655 -0.80675,-2.4246 -0.50681,-1.14367 -0.95364,-4.39107 -0.98215,-7.13789 -0.0162,-1.55744 -0.0941,-3.94069 -0.17328,-5.29611 l -0.14389,-2.46439 -0.66521,1.45623 c -1.43587,3.14328 -3.17151,6.3381 -4.20977,7.74897 -0.83498,1.13465 -1.1103,1.72229 -1.18165,2.52209 -0.0864,0.96925 0.0464,1.2792 1.88437,4.39669 1.33105,2.25767 1.97738,3.58441 1.97738,4.05908 0,0.47728 -0.53449,1.5654 -1.65396,3.36716 -2.63186,4.23591 -4.32355,7.26129 -6.83147,12.21726 -1.39085,2.74849 -2.55875,4.77526 -2.87718,4.99301 -0.29479,0.2016 -0.89988,0.59319 -1.34463,0.8702 -0.78313,0.48776 -0.8126,0.55736 -0.93393,2.20598 -0.14586,1.98192 -0.73946,2.94919 -2.36623,3.85576 -1.56602,0.87271 -4.68228,1.27429 -6.80788,0.87729 z"
       id="path1"
       sodipodi:nodetypes="sssssssssssscsssssscssssssssssssssssssscsssssssssssssscssssscssssssssssssssssssscssssssssssssssscsscsssssscsscsssssssssccsscssccssssssssssssssssscssscsssssssssssssssssssssssssssssssssssssssssssssssssccsscssssssssss" /></g></svg>
